<svg xmlns="http://www.w3.org/2000/svg" xmlns:xlink="http://www.w3.org/1999/xlink" width="2636" height="464" viewBox="0 0 1977.13 348.4"><g id="graph0" class="graph" transform="scale(1 1) rotate(0) translate(4 344.4)"><title>#</title><polygon fill="#fff" stroke="none" points="-4 4 -4 -344.4 1973.13 -344.4 1973.13 4 -4 4"/><g id="node1" class="node"><title>John E Opperman\nPerson\nDurable</title><g id="a_node1"><a xlink:href="#https://proapi.whitepages.com/2.0/entity/Person.dd48b956-ebd4-4208-9338-34ee45ab4eec.Durable.json?api_key=6b5a968507f728b72bac005321001c28" xlink:title="Name: John E Opperman Type: Person Age: 65 - 200"><polygon fill="none" stroke="#8dbd40" points="1045.31 -340.3 930.49 -340.3 930.49 -297.7 1045.31 -297.7 1045.31 -340.3"/><text x="987.898" y="-326.2" font-family="Arial" font-size="8" text-anchor="middle">John E Opperman</text><text x="987.898" y="-316.6" font-family="Arial" font-size="8" text-anchor="middle">Person</text><text x="987.898" y="-307" font-family="Arial" font-size="8" text-anchor="middle">Durable</text></a></g></g><g id="node4" class="node"><title>1330 Durham St\nSimi Valley CA 93065-4423\nLocation\nDurable</title><g id="a_node4"><a xlink:href="#https://proapi.whitepages.com/2.0/entity/Location.914f2eb0-9d42-4efd-bab0-43df3163df9a.Durable.json?api_key=6b5a968507f728b72bac005321001c28" xlink:title="Usage: Residential Receiving Mail: Yes Delivery Point: Single Unit"><polygon fill="none" stroke="#46a3cc" points="147.695 -245.002 .101 -245.002 .101 -192.198 147.695 -192.198 147.695 -245.002"/><text x="73.898" y="-230.6" font-family="Arial" font-size="8" text-anchor="middle">1330 Durham St</text><text x="73.898" y="-221" font-family="Arial" font-size="8" text-anchor="middle">Simi Valley CA 93065-4423</text><text x="73.898" y="-211.4" font-family="Arial" font-size="8" text-anchor="middle">Location</text><text x="73.898" y="-201.8" font-family="Arial" font-size="8" text-anchor="middle">Durable</text></a></g></g><g id="edge1" class="edge"><title>John E Opperman\nPerson\nDurable-&gt;1330 Durham St\nSimi Valley CA 93065-4423\nLocation\nDurable</title><g id="a_edge1"><a xlink:title="historical"><path fill="none" stroke="#959595" stroke-width="1.3" d="M930.448,-316.294C821.371,-312.638 576.886,-302.454 372.289,-279.6 279.024,-269.182 253.028,-266.817 157.732,-244.888"/><polygon fill="#959595" stroke="#959595" stroke-width="1.3" points="158.508 -241.475 147.977 -242.631 156.931 -248.295 158.508 -241.475"/></a></g><text x="386.703" y="-269.1" font-family="Arial" font-size="7" text-anchor="middle">historical</text></g><g id="node5" class="node"><title>12421 NE 103rd Pl\nKirkland WA 98033-8841\nLocation\nDurable</title><g id="a_node5"><a xlink:href="#https://proapi.whitepages.com/2.0/entity/Location.a289a975-2bd7-46b6-839c-b61ecfbdc62a.Durable.json?api_key=6b5a968507f728b72bac005321001c28" xlink:title="Usage: Residential Receiving Mail: Yes Delivery Point: Single Unit"><polygon fill="none" stroke="#46a3cc" points="304.31 -245.002 165.487 -245.002 165.487 -192.198 304.31 -192.198 304.31 -245.002"/><text x="234.898" y="-230.6" font-family="Arial" font-size="8" text-anchor="middle">12421 NE 103rd Pl</text><text x="234.898" y="-221" font-family="Arial" font-size="8" text-anchor="middle">Kirkland WA 98033-8841</text><text x="234.898" y="-211.4" font-family="Arial" font-size="8" text-anchor="middle">Location</text><text x="234.898" y="-201.8" font-family="Arial" font-size="8" text-anchor="middle">Durable</text></a></g></g><g id="edge9" class="edge"><title>John E Opperman\nPerson\nDurable-&gt;12421 NE 103rd Pl\nKirkland WA 98033-8841\nLocation\nDurable</title><g id="a_edge9"><a xlink:title="historical"><path fill="none" stroke="#959595" stroke-width="1.3" d="M930.235,-316.378C814.333,-312.122 545.167,-297.215 314.395,-244.999"/><polygon fill="#959595" stroke="#959595" stroke-width="1.3" points="315.004 -241.548 304.475 -242.726 313.441 -248.371 315.004 -241.548"/></a></g><text x="510.703" y="-269.1" font-family="Arial" font-size="7" text-anchor="middle">historical</text></g><g id="node6" class="node"><title>13009 Riverside Dr Apt 5\nSherman Oaks CA 91423-2101\nLocation\nDurable</title><g id="a_node6"><a xlink:href="#https://proapi.whitepages.com/2.0/entity/Location.2f5e4c4a-6168-43be-a462-c774ac7864c8.Durable.json?api_key=6b5a968507f728b72bac005321001c28" xlink:title="Usage: Residential Receiving Mail: Yes Delivery Point: Multi Unit"><polygon fill="none" stroke="#46a3cc" points="483.488 -245.002 322.309 -245.002 322.309 -192.198 483.488 -192.198 483.488 -245.002"/><text x="402.898" y="-230.6" font-family="Arial" font-size="8" text-anchor="middle">13009 Riverside Dr Apt 5</text><text x="402.898" y="-221" font-family="Arial" font-size="8" text-anchor="middle">Sherman Oaks CA 91423-2101</text><text x="402.898" y="-211.4" font-family="Arial" font-size="8" text-anchor="middle">Location</text><text x="402.898" y="-201.8" font-family="Arial" font-size="8" text-anchor="middle">Durable</text></a></g></g><g id="edge8" class="edge"><title>John E Opperman\nPerson\nDurable-&gt;13009 Riverside Dr Apt 5\nSherman Oaks CA 91423-2101\nLocation\nDurable</title><g id="a_edge8"><a xlink:title="historical"><path fill="none" stroke="#959595" stroke-width="1.3" d="M930.232,-312.246C839.284,-302.564 656.987,-280.702 493.962,-244.939"/><polygon fill="#959595" stroke="#959595" stroke-width="1.3" points="494.27 -241.422 483.749 -242.674 492.754 -248.256 494.27 -241.422"/></a></g><text x="682.703" y="-269.1" font-family="Arial" font-size="7" text-anchor="middle">historical</text></g><g id="node7" class="node"><title>PO Box 1402\nSimi Valley CA 93062-1402\nLocation\nDurable</title><g id="a_node7"><a xlink:href="#https://proapi.whitepages.com/2.0/entity/Location.50945fc6-9a5e-4d2e-bd87-2a94f09996f6.Durable.json?api_key=6b5a968507f728b72bac005321001c28" xlink:title="Usage: Residential Receiving Mail: Yes Delivery Point: POBox Unit"><polygon fill="none" stroke="#46a3cc" points="649.695 -245.002 502.101 -245.002 502.101 -192.198 649.695 -192.198 649.695 -245.002"/><text x="575.898" y="-230.6" font-family="Arial" font-size="8" text-anchor="middle">PO Box 1402</text><text x="575.898" y="-221" font-family="Arial" font-size="8" text-anchor="middle">Simi Valley CA 93062-1402</text><text x="575.898" y="-211.4" font-family="Arial" font-size="8" text-anchor="middle">Location</text><text x="575.898" y="-201.8" font-family="Arial" font-size="8" text-anchor="middle">Durable</text></a></g></g><g id="edge6" class="edge"><title>John E Opperman\nPerson\nDurable-&gt;PO Box 1402\nSimi Valley CA 93062-1402\nLocation\nDurable</title><g id="a_edge6"><a xlink:title="historical"><path fill="none" stroke="#959595" stroke-width="1.3" d="M930.228,-306.551C866.35,-293.559 760.165,-271.049 659.731,-244.949"/><polygon fill="#959595" stroke="#959595" stroke-width="1.3" points="660.591 -241.556 650.031 -242.412 658.82 -248.328 660.591 -241.556"/></a></g><text x="816.703" y="-269.1" font-family="Arial" font-size="7" text-anchor="middle">historical</text></g><g id="node8" class="node"><title>172 Starlight Crest Dr\nLa Canada Flintridge CA 91011-2835\nLocation\nDurable</title><g id="a_node8"><a xlink:href="#https://proapi.whitepages.com/2.0/entity/Location.20cad23d-feb5-44f3-96f5-3488d44624b1.Durable.json?api_key=6b5a968507f728b72bac005321001c28" xlink:title="Usage: Residential Receiving Mail: Yes Delivery Point: Single Unit"><polygon fill="none" stroke="#46a3cc" points="850.384 -245.002 667.413 -245.002 667.413 -192.198 850.384 -192.198 850.384 -245.002"/><text x="758.898" y="-230.6" font-family="Arial" font-size="8" text-anchor="middle">172 Starlight Crest Dr</text><text x="758.898" y="-221" font-family="Arial" font-size="8" text-anchor="middle">La Canada Flintridge CA 91011-2835</text><text x="758.898" y="-211.4" font-family="Arial" font-size="8" text-anchor="middle">Location</text><text x="758.898" y="-201.8" font-family="Arial" font-size="8" text-anchor="middle">Durable</text></a></g></g><g id="edge7" class="edge"><title>John E Opperman\nPerson\nDurable-&gt;172 Starlight Crest Dr\nLa Canada Flintridge CA 91011-2835\nLocation\nDurable</title><g id="a_edge7"><a xlink:title="historical"><path fill="none" stroke="#959595" stroke-width="1.3" d="M940.449,-297.611C907.739,-283.556 863.755,-264.656 827.273,-248.98"/><polygon fill="#959595" stroke="#959595" stroke-width="1.3" points="828.255 -245.593 817.686 -244.861 825.492 -252.024 828.255 -245.593"/></a></g><text x="908.703" y="-269.1" font-family="Arial" font-size="7" text-anchor="middle">historical</text></g><g id="node10" class="node"><title>13312 NE 89th St\nRedmond WA 98052-1998\nLocation\nDurable</title><g id="a_node10"><a xlink:href="#https://proapi.whitepages.com/2.0/entity/Location.c66c1f44-1279-4335-be57-e8f67a1e4789.Durable.json?api_key=6b5a968507f728b72bac005321001c28" xlink:title="Usage: Residential Receiving Mail: Yes Delivery Point: Single Unit"><polygon fill="#46a3cc" stroke="#46a3cc" points="1013.09 -245.002 868.703 -245.002 868.703 -192.198 1013.09 -192.198 1013.09 -245.002"/><text x="940.898" y="-230.6" fill="#fff" font-family="Arial" font-size="8" text-anchor="middle">13312 NE 89th St</text><text x="940.898" y="-221" fill="#fff" font-family="Arial" font-size="8" text-anchor="middle">Redmond WA 98052-1998</text><text x="940.898" y="-211.4" fill="#fff" font-family="Arial" font-size="8" text-anchor="middle">Location</text><text x="940.898" y="-201.8" fill="#fff" font-family="Arial" font-size="8" text-anchor="middle">Durable</text></a></g></g><g id="edge11" class="edge"><title>John E Opperman\nPerson\nDurable-&gt;13312 NE 89th St\nRedmond WA 98052-1998\nLocation\nDurable</title><g id="a_edge11"><a xlink:title="location"><path fill="none" stroke="#959595" stroke-width="1.3" d="M955.684,-297.494C950.077,-292.368 945.014,-286.369 941.781,-279.6 938.174,-272.048 936.744,-263.327 936.48,-254.915"/><polygon fill="#959595" stroke="#959595" stroke-width="1.3" points="939.979 -254.97 936.668 -244.906 932.981 -254.838 939.979 -254.97"/></a></g><text x="953.957" y="-269.1" font-family="Arial" font-size="7" text-anchor="middle">location</text></g><g id="node11" class="node"><title>13131 NE 120th Ln Apt A202\nKirkland WA 98034-8080\nLocation\nDurable</title><g id="a_node11"><a xlink:href="#https://proapi.whitepages.com/2.0/entity/Location.549e2edc-3d1b-47a7-b63a-2215315416a1.Durable.json?api_key=6b5a968507f728b72bac005321001c28" xlink:title="Usage: Residential Receiving Mail: Yes Delivery Point: Multi Unit"><polygon fill="none" stroke="#46a3cc" points="1184.95 -245.002 1030.85 -245.002 1030.85 -192.198 1184.95 -192.198 1184.95 -245.002"/><text x="1107.9" y="-230.6" font-family="Arial" font-size="8" text-anchor="middle">13131 NE 120th Ln Apt A202</text><text x="1107.9" y="-221" font-family="Arial" font-size="8" text-anchor="middle">Kirkland WA 98034-8080</text><text x="1107.9" y="-211.4" font-family="Arial" font-size="8" text-anchor="middle">Location</text><text x="1107.9" y="-201.8" font-family="Arial" font-size="8" text-anchor="middle">Durable</text></a></g></g><g id="edge4" class="edge"><title>John E Opperman\nPerson\nDurable-&gt;13131 NE 120th Ln Apt A202\nKirkland WA 98034-8080\nLocation\nDurable</title><g id="a_edge4"><a xlink:title="historical"><path fill="none" stroke="#959595" stroke-width="1.3" d="M1012.76,-297.611C1029.1,-284.214 1050.81,-266.415 1069.36,-251.202"/><polygon fill="#959595" stroke="#959595" stroke-width="1.3" points="1071.58 -253.908 1077.09 -244.861 1067.14 -248.495 1071.58 -253.908"/></a></g><text x="1069.7" y="-269.1" font-family="Arial" font-size="7" text-anchor="middle">historical</text></g><g id="node13" class="node"><title>4364 Wawona St\nLos Angeles CA 90065-5114\nLocation\nDurable</title><g id="a_node13"><a xlink:href="#https://proapi.whitepages.com/2.0/entity/Location.ec856537-9038-406d-af48-d6ccc1efea2c.Durable.json?api_key=6b5a968507f728b72bac005321001c28" xlink:title="Usage: Residential Receiving Mail: Yes Delivery Point: Single Unit"><polygon fill="none" stroke="#46a3cc" points="1355.16 -245.002 1202.64 -245.002 1202.64 -192.198 1355.16 -192.198 1355.16 -245.002"/><text x="1278.9" y="-230.6" font-family="Arial" font-size="8" text-anchor="middle">4364 Wawona St</text><text x="1278.9" y="-221" font-family="Arial" font-size="8" text-anchor="middle">Los Angeles CA 90065-5114</text><text x="1278.9" y="-211.4" font-family="Arial" font-size="8" text-anchor="middle">Location</text><text x="1278.9" y="-201.8" font-family="Arial" font-size="8" text-anchor="middle">Durable</text></a></g></g><g id="edge3" class="edge"><title>John E Opperman\nPerson\nDurable-&gt;4364 Wawona St\nLos Angeles CA 90065-5114\nLocation\nDurable</title><g id="a_edge3"><a xlink:title="historical"><path fill="none" stroke="#959595" stroke-width="1.3" d="M1045.39,-298.559C1087.93,-284.176 1146.54,-264.357 1194.4,-248.173"/><polygon fill="#959595" stroke="#959595" stroke-width="1.3" points="1195.78 -251.402 1204.13 -244.883 1193.53 -244.771 1195.78 -251.402"/></a></g><text x="1164.7" y="-269.1" font-family="Arial" font-size="7" text-anchor="middle">historical</text></g><g id="node14" class="node"><title>PO Box 411916\nLos Angeles CA 90041-8916\nLocation\nDurable</title><g id="a_node14"><a xlink:href="#https://proapi.whitepages.com/2.0/entity/Location.e08859ee-5b44-4d9c-bcc8-fbc5d9af3303.Durable.json?api_key=6b5a968507f728b72bac005321001c28" xlink:title="Usage: Residential Receiving Mail: Yes Delivery Point: POBox Unit"><polygon fill="none" stroke="#46a3cc" points="1525.16 -245.002 1372.64 -245.002 1372.64 -192.198 1525.16 -192.198 1525.16 -245.002"/><text x="1448.9" y="-230.6" font-family="Arial" font-size="8" text-anchor="middle">PO Box 411916</text><text x="1448.9" y="-221" font-family="Arial" font-size="8" text-anchor="middle">Los Angeles CA 90041-8916</text><text x="1448.9" y="-211.4" font-family="Arial" font-size="8" text-anchor="middle">Location</text><text x="1448.9" y="-201.8" font-family="Arial" font-size="8" text-anchor="middle">Durable</text></a></g></g><g id="edge5" class="edge"><title>John E Opperman\nPerson\nDurable-&gt;PO Box 411916\nLos Angeles CA 90041-8916\nLocation\nDurable</title><g id="a_edge5"><a xlink:title="historical"><path fill="none" stroke="#959595" stroke-width="1.3" d="M1045.6,-308.539C1117.7,-296.324 1244.95,-273.469 1362.64,-245.027"/><polygon fill="#959595" stroke="#959595" stroke-width="1.3" points="1363.65 -248.382 1372.54 -242.615 1361.99 -241.581 1363.65 -248.382"/></a></g><text x="1296.7" y="-269.1" font-family="Arial" font-size="7" text-anchor="middle">historical</text></g><g id="node16" class="node"><title>3000 W Belvoir Oval\nBeachwood OH 44122-2939\nLocation\nDurable</title><g id="a_node16"><a xlink:href="#https://proapi.whitepages.com/2.0/entity/Location.be55a6f7-4ed4-43ae-8b8a-e3f7b5723dc8.Durable.json?api_key=6b5a968507f728b72bac005321001c28" xlink:title="Usage: Residential Receiving Mail: Yes Delivery Point: Single Unit"><polygon fill="none" stroke="#46a3cc" points="1694.32 -245.002 1543.47 -245.002 1543.47 -192.198 1694.32 -192.198 1694.32 -245.002"/><text x="1618.9" y="-230.6" font-family="Arial" font-size="8" text-anchor="middle">3000 W Belvoir Oval</text><text x="1618.9" y="-221" font-family="Arial" font-size="8" text-anchor="middle">Beachwood OH 44122-2939</text><text x="1618.9" y="-211.4" font-family="Arial" font-size="8" text-anchor="middle">Location</text><text x="1618.9" y="-201.8" font-family="Arial" font-size="8" text-anchor="middle">Durable</text></a></g></g><g id="edge10" class="edge"><title>John E Opperman\nPerson\nDurable-&gt;3000 W Belvoir Oval\nBeachwood OH 44122-2939\nLocation\nDurable</title><g id="a_edge10"><a xlink:title="historical"><path fill="none" stroke="#959595" stroke-width="1.3" d="M1045.49,-313.696C1143.95,-305.593 1350.87,-285.329 1533.26,-244.821"/><polygon fill="#959595" stroke="#959595" stroke-width="1.3" points="1534.04 -248.234 1543.03 -242.628 1532.5 -241.405 1534.04 -248.234"/></a></g><text x="1459.7" y="-269.1" font-family="Arial" font-size="7" text-anchor="middle">historical</text></g><g id="node17" class="node"><title>953 E Colorado Blvd\nPasadena CA 91106-2325\nLocation\nDurable</title><g id="a_node17"><a xlink:href="#https://proapi.whitepages.com/2.0/entity/Location.ba73cc8d-76d0-4f36-8486-64d0f3b95a32.Durable.json?api_key=6b5a968507f728b72bac005321001c28" xlink:title="Usage: Business Receiving Mail: Yes Delivery Point: Single Unit"><polygon fill="none" stroke="#46a3cc" points="1857.16 -245.002 1712.63 -245.002 1712.63 -192.198 1857.16 -192.198 1857.16 -245.002"/><text x="1784.9" y="-230.6" font-family="Arial" font-size="8" text-anchor="middle">953 E Colorado Blvd</text><text x="1784.9" y="-221" font-family="Arial" font-size="8" text-anchor="middle">Pasadena CA 91106-2325</text><text x="1784.9" y="-211.4" font-family="Arial" font-size="8" text-anchor="middle">Location</text><text x="1784.9" y="-201.8" font-family="Arial" font-size="8" text-anchor="middle">Durable</text></a></g></g><g id="edge2" class="edge"><title>John E Opperman\nPerson\nDurable-&gt;953 E Colorado Blvd\nPasadena CA 91106-2325\nLocation\nDurable</title><g id="a_edge2"><a xlink:title="historical"><path fill="none" stroke="#959595" stroke-width="1.3" d="M1045.68,-316.911C1168.31,-313.55 1463.02,-299.906 1702.9,-244.8 1703,-244.777 1703.1,-244.754 1703.2,-244.731"/><polygon fill="#959595" stroke="#959595" stroke-width="1.3" points="1703.73 -248.204 1712.62 -242.435 1702.07 -241.403 1703.73 -248.204"/></a></g><text x="1621.7" y="-269.1" font-family="Arial" font-size="7" text-anchor="middle">historical</text></g><g id="node18" class="node"><title>2167514350\nPhone\nDurable</title><g id="a_node18"><a xlink:href="#https://proapi.whitepages.com/2.0/entity/Phone.49dd6fef-a2e0-4b08-cfe3-bc7128b70263.Durable.json?api_key=6b5a968507f728b72bac005321001c28" xlink:title="Phone Number: +1 216-751-4350 Carrier: LDMI Telecommunications Phone Type: Landline Do Not Call Registry: Not Registered Spam Score: 0%"><polygon fill="none" stroke="#cc9f18" points="1969.37 -239.9 1874.43 -239.9 1874.43 -197.3 1969.37 -197.3 1969.37 -239.9"/><text x="1921.9" y="-225.8" font-family="Arial" font-size="8" text-anchor="middle">2167514350</text><text x="1921.9" y="-216.2" font-family="Arial" font-size="8" text-anchor="middle">Phone</text><text x="1921.9" y="-206.6" font-family="Arial" font-size="8" text-anchor="middle">Durable</text></a></g></g><g id="edge12" class="edge"><title>John E Opperman\nPerson\nDurable-&gt;2167514350\nPhone\nDurable</title><g id="a_edge12"><a xlink:title="phone"><path fill="none" stroke="#959595" stroke-width="1.3" d="M1045.61,-316.422C1159.51,-312.905 1421.15,-302.831 1639.9,-279.6 1740.96,-268.867 1768.45,-273.648 1865.9,-244.8 1867.34,-244.374 1868.78,-243.92 1870.24,-243.44"/><polygon fill="#959595" stroke="#959595" stroke-width="1.3" points="1871.64 -246.654 1879.86 -239.962 1869.26 -240.071 1871.64 -246.654"/></a></g><text x="1807.63" y="-269.1" font-family="Arial" font-size="7" text-anchor="middle">phone</text></g><g id="node2" class="node"><title>Kushal Shah\nPerson\nDurable</title><g id="a_node2"><a xlink:href="#https://proapi.whitepages.com/2.0/entity/Person.6df22891-ceff-4a1d-942e-1d2ed0f059ac.Durable.json?api_key=6b5a968507f728b72bac005321001c28" xlink:title="Name: Kushal Shah Type: Person"><polygon fill="none" stroke="#8dbd40" points="988.751 -139.5 893.046 -139.5 893.046 -96.9 988.751 -96.9 988.751 -139.5"/><text x="940.898" y="-125.4" font-family="Arial" font-size="8" text-anchor="middle">Kushal Shah</text><text x="940.898" y="-115.8" font-family="Arial" font-size="8" text-anchor="middle">Person</text><text x="940.898" y="-106.2" font-family="Arial" font-size="8" text-anchor="middle">Durable</text></a></g></g><g id="node3" class="node"><title>8835 132nd Pl NE\nRedmond WA 98052-1996\nLocation\nDurable</title><g id="a_node3"><a xlink:href="#https://proapi.whitepages.com/2.0/entity/Location.452ee19e-39b2-44aa-a601-4f2080e1c5ec.Durable.json?api_key=6b5a968507f728b72bac005321001c28" xlink:title="Usage: Residential Receiving Mail: Yes Delivery Point: Single Unit"><polygon fill="none" stroke="#46a3cc" points="776.094 -52.602 631.703 -52.602 631.703 .202 776.094 .202 776.094 -52.602"/><text x="703.898" y="-38.2" font-family="Arial" font-size="8" text-anchor="middle">8835 132nd Pl NE</text><text x="703.898" y="-28.6" font-family="Arial" font-size="8" text-anchor="middle">Redmond WA 98052-1996</text><text x="703.898" y="-19" font-family="Arial" font-size="8" text-anchor="middle">Location</text><text x="703.898" y="-9.4" font-family="Arial" font-size="8" text-anchor="middle">Durable</text></a></g></g><g id="edge13" class="edge"><title>Kushal Shah\nPerson\nDurable-&gt;8835 132nd Pl NE\nRedmond WA 98052-1996\nLocation\nDurable</title><g id="a_edge13"><a xlink:title="historical"><path fill="none" stroke="#959595" stroke-width="1.3" d="M892.938,-98.9872C860.656,-86.7281 817.392,-70.2988 780.4,-56.2512"/><polygon fill="#959595" stroke="#959595" stroke-width="1.3" points="781.237 -52.825 770.646 -52.547 778.752 -59.369 781.237 -52.825"/></a></g><text x="850.703" y="-72.5" font-family="Arial" font-size="7" text-anchor="middle">historical</text></g><g id="node9" class="node"><title>3242 42nd St\nAstoria NY 11103-3103\nLocation\nDurable</title><g id="a_node9"><a xlink:href="#https://proapi.whitepages.com/2.0/entity/Location.13ae97d2-8ae3-4fdc-9c62-d412b436c7a1.Durable.json?api_key=6b5a968507f728b72bac005321001c28" xlink:title="Usage: Residential Receiving Mail: Yes Delivery Point: Single Unit"><polygon fill="none" stroke="#46a3cc" points="927.534 -52.602 794.262 -52.602 794.262 .202 927.534 .202 927.534 -52.602"/><text x="860.898" y="-38.2" font-family="Arial" font-size="8" text-anchor="middle">3242 42nd St</text><text x="860.898" y="-28.6" font-family="Arial" font-size="8" text-anchor="middle">Astoria NY 11103-3103</text><text x="860.898" y="-19" font-family="Arial" font-size="8" text-anchor="middle">Location</text><text x="860.898" y="-9.4" font-family="Arial" font-size="8" text-anchor="middle">Durable</text></a></g></g><g id="edge14" class="edge"><title>Kushal Shah\nPerson\nDurable-&gt;3242 42nd St\nAstoria NY 11103-3103\nLocation\nDurable</title><g id="a_edge14"><a xlink:title="historical"><path fill="none" stroke="#959595" stroke-width="1.3" d="M922.745,-96.7776C913.215,-86.0566 901.299,-72.6507 890.477,-60.4757"/><polygon fill="#959595" stroke="#959595" stroke-width="1.3" points="892.819 -57.842 883.559 -52.693 887.587 -62.493 892.819 -57.842"/></a></g><text x="919.703" y="-72.5" font-family="Arial" font-size="7" text-anchor="middle">historical</text></g><g id="edge17" class="edge"><title>Kushal Shah\nPerson\nDurable-&gt;13312 NE 89th St\nRedmond WA 98052-1998\nLocation\nDurable</title><g id="a_edge17"><a xlink:title="location"><path fill="none" stroke="#959595" stroke-width="1.3" d="M942.154,-139.52C942.461,-145.355 942.746,-151.727 942.898,-157.6 943.104,-165.496 943.012,-173.976 942.782,-182.002"/><polygon fill="#959595" stroke="#959595" stroke-width="1.3" points="939.277 -182.083 942.412 -192.203 946.272 -182.337 939.277 -182.083"/></a></g><text x="955.957" y="-163.9" font-family="Arial" font-size="7" text-anchor="middle">location</text></g><g id="node12" class="node"><title>327 Main St Apt 4\nBinghamton NY 13905-2566\nLocation\nDurable</title><g id="a_node12"><a xlink:href="#https://proapi.whitepages.com/2.0/entity/Location.feec8b97-ed12-4178-b410-91276d82568c.Durable.json?api_key=6b5a968507f728b72bac005321001c28" xlink:title="Usage: Residential Receiving Mail: Yes Delivery Point: Multi Unit"><polygon fill="none" stroke="#46a3cc" points="1096.32 -52.602 945.474 -52.602 945.474 .202 1096.32 .202 1096.32 -52.602"/><text x="1020.9" y="-38.2" font-family="Arial" font-size="8" text-anchor="middle">327 Main St Apt 4</text><text x="1020.9" y="-28.6" font-family="Arial" font-size="8" text-anchor="middle">Binghamton NY 13905-2566</text><text x="1020.9" y="-19" font-family="Arial" font-size="8" text-anchor="middle">Location</text><text x="1020.9" y="-9.4" font-family="Arial" font-size="8" text-anchor="middle">Durable</text></a></g></g><g id="edge16" class="edge"><title>Kushal Shah\nPerson\nDurable-&gt;327 Main St Apt 4\nBinghamton NY 13905-2566\nLocation\nDurable</title><g id="a_edge16"><a xlink:title="historical"><path fill="none" stroke="#959595" stroke-width="1.3" d="M959.052,-96.7776C968.581,-86.0566 980.498,-72.6507 991.32,-60.4757"/><polygon fill="#959595" stroke="#959595" stroke-width="1.3" points="994.21 -62.493 998.238 -52.693 988.978 -57.842 994.21 -62.493"/></a></g><text x="994.703" y="-72.5" font-family="Arial" font-size="7" text-anchor="middle">historical</text></g><g id="node15" class="node"><title>14508 NE 42nd Pl Apt 602\nBellevue WA 98007-3188\nLocation\nDurable</title><g id="a_node15"><a xlink:href="#https://proapi.whitepages.com/2.0/entity/Location.7ccf2fe7-f3c4-4baf-b89b-4bcb59f8bdd1.Durable.json?api_key=6b5a968507f728b72bac005321001c28" xlink:title="Usage: Not defined Receiving Mail: Yes Delivery Point: Not defined"><polygon fill="none" stroke="#46a3cc" points="1259.11 -52.602 1114.69 -52.602 1114.69 .202 1259.11 .202 1259.11 -52.602"/><text x="1186.9" y="-38.2" font-family="Arial" font-size="8" text-anchor="middle">14508 NE 42nd Pl Apt 602</text><text x="1186.9" y="-28.6" font-family="Arial" font-size="8" text-anchor="middle">Bellevue WA 98007-3188</text><text x="1186.9" y="-19" font-family="Arial" font-size="8" text-anchor="middle">Location</text><text x="1186.9" y="-9.4" font-family="Arial" font-size="8" text-anchor="middle">Durable</text></a></g></g><g id="edge15" class="edge"><title>Kushal Shah\nPerson\nDurable-&gt;14508 NE 42nd Pl Apt 602\nBellevue WA 98007-3188\nLocation\nDurable</title><g id="a_edge15"><a xlink:title="historical"><path fill="none" stroke="#959595" stroke-width="1.3" d="M988.621,-99.7404C1022.5,-87.3466 1068.75,-70.4242 1108.07,-56.0414"/><polygon fill="#959595" stroke="#959595" stroke-width="1.3" points="1109.71 -59.166 1117.9 -52.444 1107.31 -52.593 1109.71 -59.166"/></a></g><text x="1077.7" y="-72.5" font-family="Arial" font-size="7" text-anchor="middle">historical</text></g><g id="edge18" class="edge"><title>13312 NE 89th St\nRedmond WA 98052-1998\nLocation\nDurable-&gt;John E Opperman\nPerson\nDurable</title><g id="a_edge18"><a xlink:title="legal entity at"><path fill="none" stroke="#959595" stroke-width="1.3" d="M956.331,-244.851C959.651,-250.661 963.022,-256.876 965.898,-262.8 969.817,-270.871 973.612,-279.829 976.915,-288.14"/><polygon fill="#959595" stroke="#959595" stroke-width="1.3" points="973.668 -289.447 980.545 -297.507 980.195 -286.918 973.668 -289.447"/></a></g><text x="986.153" y="-273.3" font-family="Arial" font-size="7" text-anchor="middle">legal</text><text x="986.153" y="-264.9" font-family="Arial" font-size="7" text-anchor="middle">entity at</text></g><g id="edge19" class="edge"><title>13312 NE 89th St\nRedmond WA 98052-1998\nLocation\nDurable-&gt;Kushal Shah\nPerson\nDurable</title><g id="a_edge19"><a xlink:title="legal entity at"><path fill="none" stroke="#959595" stroke-width="1.3" d="M920.894,-192.4C914.877,-181.855 910.731,-169.342 914.39,-157.6 915.378,-154.429 916.73,-151.289 918.303,-148.251"/><polygon fill="#959595" stroke="#959595" stroke-width="1.3" points="921.401 -149.89 923.546 -139.515 915.399 -146.288 921.401 -149.89"/></a></g><text x="927.153" y="-168.1" font-family="Arial" font-size="7" text-anchor="middle">legal</text><text x="927.153" y="-159.7" font-family="Arial" font-size="7" text-anchor="middle">entity at</text></g></g></svg>